<svg xmlns="http://www.w3.org/2000/svg" width="37.109" height="33.945" viewBox="0 0 37.109 33.945">
  <g id="_032-shopping-cart" data-name="032-shopping-cart" transform="translate(0 -0.387)">
    <path id="Path_159" data-name="Path 159" d="M357.222,355a2.611,2.611,0,1,1-2.611-2.611A2.611,2.611,0,0,1,357.222,355Zm0,0" transform="translate(-323.278 -323.278)"/>
    <path id="Path_160" data-name="Path 160" d="M395.252,96.387l-.349,3.264h4.419l.466-3.264Zm0,0" transform="translate(-362.68 -88.167)"/>
    <path id="Path_161" data-name="Path 161" d="M376.9,267.651h3.93l.466-3.264h-4.047Zm0,0" transform="translate(-346.148 -242.458)"/>
    <path id="Path_162" data-name="Path 162" d="M388.9,155.651h4.256l.466-3.264h-4.373Zm0,0" transform="translate(-357.169 -139.597)"/>
    <path id="Path_163" data-name="Path 163" d="M382.9,211.651h4.093l.466-3.264h-4.21Zm0,0" transform="translate(-351.658 -191.028)"/>
    <path id="Path_164" data-name="Path 164" d="M310.454,96.387H304v3.264h6.1Zm0,0" transform="translate(-279.195 -88.167)"/>
    <path id="Path_165" data-name="Path 165" d="M308.986,264.387H304v3.264h4.636Zm0,0" transform="translate(-279.195 -242.458)"/>
    <path id="Path_166" data-name="Path 166" d="M309.965,152.387H304v3.264h5.615Zm0,0" transform="translate(-279.195 -139.597)"/>
    <path id="Path_167" data-name="Path 167" d="M309.475,208.387H304v3.264h5.126Zm0,0" transform="translate(-279.195 -191.028)"/>
    <path id="Path_168" data-name="Path 168" d="M22.847,31.72a2.607,2.607,0,0,1-5.137.633.321.321,0,0,1-.085.019H14.831a1.953,1.953,0,0,1-1.939-1.664L8.662,2.9a.648.648,0,0,0-.646-.555H6.528V3H1.306a1.306,1.306,0,0,1,0-2.611H6.528V1.04H8.016A1.953,1.953,0,0,1,9.955,2.7L10.8,8.22h4.935l.353,3.264h-4.8l.2,1.306h4.733l.353,3.264H11.985l.2,1.306h4.53l.353,3.264H12.677l.2,1.306H17.2l.353,3.264H13.376l.809,5.32a.648.648,0,0,0,.646.555h2.794a.322.322,0,0,1,.085.02,2.607,2.607,0,0,1,5.137.633Zm0,0" transform="translate(0)"/>
    <path id="Path_169" data-name="Path 169" d="M209.252,99.651h6.1V96.387H208.9Zm0,0" transform="translate(-191.857 -88.167)"/>
    <path id="Path_170" data-name="Path 170" d="M227.252,267.651h4.636v-3.264H226.9Zm0,0" transform="translate(-208.388 -242.458)"/>
    <path id="Path_171" data-name="Path 171" d="M221.252,211.651h5.126v-3.264H220.9Zm0,0" transform="translate(-202.878 -191.028)"/>
    <path id="Path_172" data-name="Path 172" d="M215.252,155.651h5.615v-3.264H214.9Zm0,0" transform="translate(-197.367 -139.597)"/>
  </g>
</svg>
