<svg xmlns="http://www.w3.org/2000/svg" width="94" height="80" viewBox="0 0 94 80">
  <g id="Group_298" data-name="Group 298" transform="translate(-25 -6)">
    <path id="Polygon_8" data-name="Polygon 8" d="M55.594,0A20,20,0,0,1,66.5,3.232l12.916,8.4a20,20,0,0,1,7.9,9.942l4.213,11.6a20,20,0,0,1,0,13.652l-4.213,11.6a20,20,0,0,1-7.9,9.942L66.5,76.768A20,20,0,0,1,55.594,80H38.406a20,20,0,0,1-10.9-3.232l-12.916-8.4a20,20,0,0,1-7.9-9.942l-4.213-11.6a20,20,0,0,1,0-13.652l4.213-11.6a20,20,0,0,1,7.9-9.942L27.5,3.232A20,20,0,0,1,38.406,0Z" transform="translate(25 6)" fill="#fbc04c"/>
    <text id="LT" transform="translate(47 64)" fill="#fff" font-size="50" font-family="SegoeUI-Bold, Segoe UI" font-weight="700"><tspan x="0" y="0">LT</tspan></text>
  </g>
</svg>
